<svg version="1.1" id="Layer_1" xmlns="http://www.w3.org/2000/svg" x="0" y="0" viewBox="0 0 525.4 67.8" style="enable-background:new 0 0 525.4 67.8" xml:space="preserve"><style>.st0{fill:#00a59d}</style><path class="st0" d="M36.5 17.2c5.4 0 10.2-2.9 10.2-8.3 0-5.5-5.5-9.3-12.5-8.8v1.4c2.3.3 5.7.7 5.7 3.3 0 1.7-1.5 2.4-3.2 2.4-6.8 0-16.8-5.4-23.1-5.4-7.2 0-11.8 4.7-11.8 10.1 0 3.9 2.3 6.7 5.1 7.9l.7-1.1c-1-.5-1.8-1.5-1.8-2.9 0-2.6 2.4-3.9 5-3.9 3.5 0 16.5 4.2 23.6 5.1v9.3l-4.9 4.9 4.9 4.9v12.8c-2.4 1.2-5.2 2-8.3 2-4.8 0-9-1.9-11.9-4.8l13.2-5.6V17.7l-16.5 7c2.4-5.1 6.3-8 7.6-8.9l-.7-1.1C6.5 16.6 0 26.5 0 35.7c0 13.9 11.7 23.4 24 23.4 12.2 0 21.7-9.1 21.7-20.6v-.7h-1.4c-1.5 3.8-4.2 7.4-7.8 9.9V36.2l5-5-5-5v-9zM8.9 33.3c0-2.2.3-4.2.9-6l7.8-3.3v18.3l-4.9 2.1c-2.4-3-3.8-7-3.8-11.1zM84.3 25.1l-3 2.4-7.9-6.6-9.3 8.8V1.8h-1.4l-12.2 8.6v1.1c3.6 1.1 3.6 2.7 3.6 4v34.2l-5 3.2 1.3 1.7 2.9-1.8 7.7 6.5 9.3-6.5-1.3-1.7-2.3 1.6-2.4-2.4V31.9l4.2-3.9 4.5 3.7v19.1c0 7.7-2.7 15-8.3 15v1.8c.8.1 1.5.2 2.3.2 13 0 15.6-9.3 15.6-17V29.4l3.2-2.6-1.5-1.7zM108.8 52.2l-9-6.1v-3.2L116 32.8v-.4l-7.5-11.5-18 9.3V50L87 52.9l1.3 1.6 3.3-2.7 11.1 8.3 15.5-12.6-1.1-1.8-8.3 6.5zm-9-24.7 1.4-.8 6.1 8.8-7.5 4.8V27.5zM191.4 2.6h-1c-.2 2.3-2.1 3.9-4.6 3.9-2.7 0-4.6-1.6-5.8-3.2h-1.5L169.1 14l1.1 1.1 2.9-3.2c1.8 1.7 4.4 3 7.5 3.3v24.7l-18-30.2c-2-3.4-4-7.3-9.5-7.3-5.2 0-9.4 4.5-9.4 9.9 0 .7.1 1.4.2 2l1.4.4c0-2.5 1.2-4 3.3-4 1.1 0 2.2.8 3.3 2.1V23h-.1c-5 0-9 3.8-9 8.5 0 3.5 2.4 6.2 5.3 6.9l.4-1c-.6-.4-1-1-1-1.8 0-1.9 1.7-2.4 3.6-2.4h.8v12.3h-.1c-6.2 0-11.3 4.1-11.3 10.2 0 6.6 6 10.3 11.2 9.5l.4-1.4c-2.6.3-5-1.6-5-4.1 0-2.1 1.7-3.5 3.8-3.5 2.7 0 4.8 1.7 6.2 3.2l9.7-10.8-1.1-1.1-2.5 2.9c-3.2-3.2-6.8-4.3-9.2-4.7V15.8c.2.3.4.7.6 1l25.1 42.6h2.8V15.2c5.1-.4 9.6-3.7 9.6-8.9.2-1.3-.1-2.6-.7-3.7zM194.1 30.2v19.3l-3.8 3.1 1.3 1.6 3.1-2.5 10.5 7.6 16.5-10.1V28.8L211 20.5l-16.9 9.7zm18.3 23.4-8.6-5.8V26.3l8.6 5.8v21.5zM229.5 30.2v19.3l-3.8 3.1 1.3 1.6 3.1-2.5 10.5 7.6 16.5-10.1V28.8l-10.8-8.3-16.8 9.7zm18.3 23.4-8.6-5.8V26.3l8.6 5.8v21.5zM297.3 52.9l-3.2-2.9V30.4l3.6-2.9-1.3-1.7-3.1 2.6-8.5-7.3-8.3 6.5-5.8-6.5-10.4 7.2 1.1 1.4 2.9-1.8 2.9 3.3v19.9l-2.9 2.5 8.6 6.8 7.2-6.4-3.2-2.9V30.5l3.2-2.6 5.4 4.7v18.5l-2.5 2.5 7.5 6.8 11.2-7.5-1.5-2.2zM335.2 53.3l-3.6-3.6v-19l3.9-3.2-1.3-1.6-3 2.5-11.1-7.1-8.3 4.3c-2.2 1.2-4.7 3-4.7 6.3 0 3.5 2.7 5.6 6.1 7.1-5.6 3-8.7 6.8-8.7 10.8 0 5.6 5.3 9.3 10.1 9.9l7.9-5.8 5.7 5.7 10.4-7.2-.4-1.4-3 2.3zm-12.9-.3c-.5.2-1 .2-1.6.2-4.7 0-7-6-7-10.2 0-1.4.5-2.7 1-3.4 2.5.9 5.2 1.5 7.6 2.1V53zm0-13.6c-5-1.2-12.9-3.2-12.9-8 0-2 1.9-3.4 4.1-4.5l8.9 5.5c-.1 2.3-.1 4.7-.1 7zM412.4 6.3c0-1.3-.3-2.6-.9-3.7h-1c-.2 2.3-2.1 3.9-4.6 3.9-2.7 0-4.6-1.6-5.8-3.2h-1.5L389.2 14l1.1 1.1 2.9-3.2c1.8 1.7 4.4 3 7.5 3.3v24.7l-18-30.2c-2-3.4-4-7.3-9.5-7.3-5.2 0-9.4 4.5-9.4 9.9 0 .7.1 1.4.2 2l1.4.4c0-2.5 1.2-4 3.3-4 1.1 0 2.2.8 3.3 2.1V23h-.1c-5 0-9 3.8-9 8.5 0 3.5 2.4 6.2 5.3 6.9l.4-1c-.6-.4-1-1-1-1.8 0-1.9 1.7-2.4 3.6-2.4h.8v12.3h-.1c-6.2 0-11.3 4.1-11.3 10.2 0 6.6 6 10.3 11.2 9.5l.4-1.4c-2.6.3-5-1.6-5-4.1 0-2.1 1.7-3.5 3.8-3.5 2.7 0 4.8 1.7 6.2 3.2l9.7-10.8-1.1-1.1-2.5 2.9c-3.2-3.2-6.8-4.3-9.2-4.7V15.8c.2.3.4.7.6 1L400 59.4h2.8V15.2c5.2-.3 9.6-3.7 9.6-8.9zM431.7 52.2l-9-6.1v-3.2l16.2-10.1v-.4l-7.5-11.5-18 9.3V50l-3.5 2.9 1.3 1.6 3.3-2.7 11.1 8.3L441 47.5l-1.1-1.8-8.2 6.5zm-9-24.7 1.4-.8 6.1 8.8-7.5 4.8V27.5zM491.2 25l-4.7-4.1-7.9 6.5 3.3 3v22.7l-1.6 1-5.9-3.9V29.8l2.8-2.3-7.6-6.7-7.9 6.5 3.3 3v22.8l-1.4.8-5.9-3.9V35c0-7.1-.8-9.1-5.4-12.1-1.6-1-3.7-2.4-3.7-4.8 0-2 1.6-3.4 3.3-3.8l-.4-1.4c-5.7.5-9.9 4.6-9.9 8.8 0 3.3 2.5 5.2 4.2 7 1.7 1.8 2.5 3.3 2.5 7v15.9l-3.4 2.7 1.3 1.6 2.3-1.9 8.6 6.2 9.4-5.2 7.2 5.2 17.4-9.2V27.4l4.4-3.6-1.3-1.6-3 2.8zM525.4 21.1h-2.1c-.2 1.8-1.8 3.1-3.8 3.1-2.5 0-4.4-1.7-5.5-3.3l-15.5 9v10.5l5.7 4.5c-5.9 5.5-7.1 8.2-7.1 11.3 0 3.5 2.1 6 4.7 7l.7-2c-.6-.3-1.1-1-1.1-1.9 0-1.8 1.8-2.8 3.5-2.8 2.7 0 4.5 1.7 5.6 3.5l14.8-9V39.8l-6.5-4.8c4.3-3.9 6-8.2 6.6-13.9zm-9.7 33.3c-1.4-3-4.5-5.8-8.8-5.8-2 0-3.8.7-5.3 1.8 1.8-2.3 4.5-4.5 7.2-6.8l2.7-2.3 4.2 3.3v9.8zm1.1-20.4-5.5 4.7-3.1-3.2v-9.8c1.5 3.8 4.8 5.5 8.1 5.5 1.3 0 2.6-.3 3.8-.8-1.1 1.6-2.2 2.7-3.3 3.6z"/></svg>